<svg id="Layer_3" data-name="Layer 3" xmlns="http://www.w3.org/2000/svg" xmlns:xlink="http://www.w3.org/1999/xlink" viewBox="0 0 541.27 434.95"><defs><style>.cls-1{fill:url(#radial-gradient);}.cls-2{fill:url(#linear-gradient);}.cls-3{fill:url(#radial-gradient-2);}.cls-4{fill:url(#radial-gradient-3);}.cls-5{font-size:172.39px;font-family:Mistuki1PERSONALUSE, Mistuki 1 PERSONAL USE;letter-spacing:0.02em;}.cls-14,.cls-19,.cls-5{fill:#fff;}.cls-11,.cls-6{fill:#00aeef;}.cls-6,.cls-7,.cls-8,.cls-9{font-size:87.41px;}.cls-6,.cls-8,.cls-9{letter-spacing:0.02em;}.cls-10,.cls-7{fill:#ec008c;}.cls-7{letter-spacing:0.03em;}.cls-12,.cls-8{fill:#fff200;}.cls-13,.cls-9{fill:#00a651;}.cls-10,.cls-11,.cls-12,.cls-13{font-size:97.12px;}.cls-10,.cls-12,.cls-13{letter-spacing:0.02em;}.cls-11{letter-spacing:0.03em;}.cls-14{font-size:21.85px;letter-spacing:0.03em;}.cls-14,.cls-19{font-family:URWAlcuinT-Regu, URWAlcuinT;}.cls-15{letter-spacing:0.05em;}.cls-16{letter-spacing:0.08em;}.cls-17{letter-spacing:0.03em;}.cls-18{letter-spacing:0.05em;}.cls-19{font-size:12.14px;letter-spacing:0.05em;}</style><radialGradient id="radial-gradient" cx="276.52" cy="182.87" r="134.66" gradientTransform="translate(-11.66 -30.24) scale(1 0.9)" gradientUnits="userSpaceOnUse"><stop offset="0" stop-color="#fff"/><stop offset="0" stop-color="#eae9e9"/><stop offset="0" stop-color="#fff"/><stop offset="1" stop-color="#a97c50"/></radialGradient><linearGradient id="linear-gradient" x1="83.85" y1="189.73" x2="465.45" y2="189.73" gradientUnits="userSpaceOnUse"><stop offset="0" stop-color="#fff"/><stop offset="0" stop-color="#eae9e9"/><stop offset="0.04" stop-color="#231f20"/><stop offset="1" stop-color="#231f20"/></linearGradient><radialGradient id="radial-gradient-2" cx="417.92" cy="202.4" r="26.8" gradientUnits="userSpaceOnUse"><stop offset="0" stop-color="#fff"/><stop offset="0" stop-color="#eae9e9"/><stop offset="0" stop-color="#fff"/><stop offset="0.86" stop-color="#ecedee"/><stop offset="0.99" stop-color="#e6e7e8"/></radialGradient><radialGradient id="radial-gradient-3" cx="131.68" cy="202.58" r="27" xlink:href="#radial-gradient-2"/></defs><title>Color Nerds Logo1</title><ellipse class="cls-1" cx="264.86" cy="134.35" rx="134.98" ry="134.35"/><path d="M399.2,119.17h-50a8.57,8.57,0,0,1-8.57-8.57h0a8.57,8.57,0,0,1,8.57-8.57h50a8.57,8.57,0,0,1,8.57,8.57h0A8.57,8.57,0,0,1,399.2,119.17Z" transform="translate(-11.66 -48.52)"/><path d="M150.11,119.17h50a8.57,8.57,0,0,0,8.57-8.57h0a8.57,8.57,0,0,0-8.57-8.57h-50a8.57,8.57,0,0,0-8.57,8.57h0A8.57,8.57,0,0,0,150.11,119.17Z" transform="translate(-11.66 -48.52)"/><ellipse cx="376.36" cy="103.11" rx="15.06" ry="15.24"/><ellipse cx="191.87" cy="101.9" rx="15.06" ry="15.24"/><path class="cls-2" d="M464.38,131.77c-2.47-1.43-31-6.84-52.06-8.44-12-.91-41.88-.23-65.28,2.64-12,1.48-53.42,13-57.33,14s-9.61-1-15.07-.88c-5.46-.1-11.16,1.86-15.07.88s-45.31-12.55-57.33-14c-23.4-2.87-53.3-3.56-65.28-2.64-21.06,1.6-49.58,7-52.06,8.44s.09,26.78.09,26.78,5.46,1.61,7.61,3a11.28,11.28,0,0,1,4.89,9.62c-.13,4.83,5.15,73,52.69,84,11.41,2.64,37.58.69,37.58.69s36-3.45,53-30.93c9.62-15.54,16.92-29.57,22.77-54.3.69-2.9,4.92-5.81,11.05-6,6.13.18,10.37,3.08,11.05,6,5.85,24.73,13.15,38.76,22.77,54.3,17,27.48,53,30.93,53,30.93s26.16,1.95,37.58-.69c47.54-11,52.82-79.12,52.69-84a11.28,11.28,0,0,1,4.89-9.62c2.15-1.39,7.61-3,7.61-3S466.85,133.2,464.38,131.77Zm-218.5,53.3c-1.34,4.44-5,21.39-17.68,38.73-5.76,7.89-15.78,19-45.24,22.85a120.58,120.58,0,0,1-27.34.09,42.49,42.49,0,0,1-19.74-7.31c-16.22-11.67-22.09-31.37-23.1-39-5.84-44.31,1.78-46.88,6-51.46,16.52-18.08,110.61-17.82,127.05,11.29C248.27,164.61,247.22,180.63,245.88,185.07Zm190.64,15.35c-1,7.65-6.89,27.35-23.1,39a42.49,42.49,0,0,1-19.74,7.31,120.58,120.58,0,0,1-27.34-.09c-29.46-3.88-39.48-15-45.24-22.85-12.65-17.34-16.34-34.3-17.68-38.73s-2.39-20.45.08-24.83C320,131.13,414,130.87,430.56,148.95,434.75,153.53,442.37,156.1,436.52,200.41Z" transform="translate(-11.66 -48.52)"/><path class="cls-3" d="M430,199.57c-1.51,6.77-6.19,24.59-20.77,35.08-.8.58-1.67,1.14-2.59,1.67-2.78,1.61-3.8,1.85-1.55-.44,8.3-1,29-25.6,20.46-65.92a2.76,2.76,0,0,1,5.48-.49A76,76,0,0,1,430,199.57Z" transform="translate(-11.66 -48.52)"/><path class="cls-4" d="M118.32,169.47a2.76,2.76,0,0,1,5.48.49c-8.41,40.74,14.12,65.19,21.26,66.58,2.25,2.3.44,1.39-2.34-.22-.93-.54-1.79-1.1-2.59-1.67-14.58-10.5-19.26-28.31-20.77-35.08A76,76,0,0,1,118.32,169.47Z" transform="translate(-11.66 -48.52)"/><text class="cls-5" transform="translate(15.18 340.18)">C<tspan class="cls-6" x="115.15" y="0">o</tspan><tspan class="cls-7" x="142.16" y="0">l</tspan><tspan class="cls-8" x="161.92" y="0">o</tspan><tspan class="cls-9" x="188.92" y="0">r</tspan></text><text class="cls-5" transform="translate(232.82 340.18)">N<tspan class="cls-10" x="163.25" y="0">e</tspan><tspan class="cls-11" x="194.13" y="0">r</tspan><tspan class="cls-12" x="219.09" y="0">d</tspan><tspan class="cls-13" x="257.36" y="0">s</tspan></text><text class="cls-14" transform="translate(108.26 410.48)">W<tspan class="cls-15" x="21.62" y="0">eb Design &amp; D</tspan><tspan class="cls-16" x="177.84" y="0">e</tspan><tspan class="cls-17" x="190.33" y="0">v</tspan><tspan class="cls-18" x="201.91" y="0">elopment</tspan></text><text class="cls-19" transform="translate(513.05 293.94)">TM</text></svg>