<svg id="Layer_4" data-name="Layer 4" xmlns="http://www.w3.org/2000/svg" viewBox="0 0 545.8 466.81"><defs><style>.cls-1{fill:#212020;}.cls-2{fill:#95d2ed;}.cls-3{fill:#7cb9e5;}.cls-4{fill:#f3c9b0;}.cls-5{fill:#fefefe;}.cls-6{fill:#ac5e53;}</style></defs><title>Git hub octocat</title><path class="cls-1" d="M212.22,405.9c.07-11.92.08-23.85.25-35.77,0-2.39-1-2.16-2.67-1.84A99.44,99.44,0,0,1,183,370.19c-18.23-1.43-32.74-9.41-43.11-24.51-3.23-4.69-6-9.72-8.81-14.68-5.49-9.67-12.79-17.39-23-22.13a22,22,0,0,1-7.41-5.22c-2.59-2.93-2-5.29,1.67-6.71,5.88-2.25,11.76-1.33,17.5.59,11.09,3.72,19.29,11.07,25.48,20.8,3.4,5.35,6.91,10.61,11.7,14.85,14.37,12.73,30.74,13.67,48.19,8.09.46-.15.91-.34,1.38-.46,5.06-1.23,8-4,9.43-9.43,2.69-9.91,8.53-18.11,17.44-24.59-16.23-1.92-31.59-4.7-46.45-9.73C166,290,147.58,279.18,134.16,261.1a110.76,110.76,0,0,1-6.13-9.48,3.33,3.33,0,0,0-3.48-1.89c-38.86,1.64-77.32,6.1-115,16.26a5.9,5.9,0,0,1-1.41.35c-.73,0-1.71,1-2.15-.32-.51-1.53.92-1.51,1.7-1.71,7.18-1.8,14.35-3.69,21.59-5.25a524.75,524.75,0,0,1,91.15-11.11c5.28-.19,4.89-.09,3.32-4.94-1.4-4.31-3.75-5.35-8.12-5.47-35.87-.93-71.52,1-106.86,7.48-1.18.22-3.34,1.68-3.75-.32s2-1.44,3.26-1.66c35.45-6.61,71.22-8.57,107.21-7.49,1.55,0,3.1,0,5,0a145.39,145.39,0,0,1-5.87-24.64c-3-23.44-4.34-46.78,4.61-69.45a96.7,96.7,0,0,1,17.81-29.06c1.43-1.61,1.9-2.88,1.18-5.07-7.06-21.53-4.82-42.66,2.89-63.55.79-2.13,2.24-2.29,4-2.37,8.16-.4,15.94,1.45,23.58,4,14.62,4.94,27.9,12.5,40.67,21A7.5,7.5,0,0,0,216,67.69a246.5,246.5,0,0,1,116-1.34,7.1,7.1,0,0,0,6-1.14c14.41-9.37,29.35-17.66,46.17-22a56.35,56.35,0,0,1,16.25-1.91,4.07,4.07,0,0,1,4.26,3.09c6.9,19.22,9.2,38.72,3.92,58.73a3.81,3.81,0,0,0,1.12,4.13c19.47,20.51,28.46,45,28.21,73.22-.17,18.51-1.11,36.9-5.86,55.16,12.22-.15,24.13-.62,36.05-.35,26.56.59,53,2.71,79.1,7.65,1.31.25,3.75.05,3.52,1.49-.4,2.42-2.69.75-3.91.52-37.41-6.9-75.13-8.62-113.07-7.21-1.69.06-2.64.47-3.11,2.17-.64,2.33-1.48,4.61-2.23,6.91,0,.1,0,.23.1.63,7.44.42,14.95.77,22.45,1.27,32.46,2.17,64.55,6.72,96,15.29a5.35,5.35,0,0,1,1.06.24c.74.39,2.21.2,1.7,1.72-.44,1.31-1.46.47-2.14.31-3.08-.7-6.12-1.54-9.18-2.31-35.67-8.95-72-12.86-108.67-14.32-1.49-.06-2.7-.14-3.52,1.65-10.5,23.13-29.36,36.56-52.52,44.86-16.33,5.85-33.3,8.77-50.46,10.56-.28.63.07.93.47,1.24,12.17,9.47,18.24,22.12,19.13,37.31,1.08,18.49.24,37,.48,55.5,0,1.45.13,2.9.2,4.36-.07,3.51-.15,7-.2,10.53-.15,11.95,4.64,20.85,15.83,25.91,3.57,1.61,4.6,4.37,3.32,7.83l-1.28,1-.9.44c-8.78,1.11-17.22-.36-25.46-3.34-11.23-5.12-17.22-13.76-17.47-26.18-.13-6.42-.13-12.85-.19-19.27,0-12.29.22-24.57,0-36.85a35.84,35.84,0,0,0-4.2-16.83c-.82-1.48-1.47-3.24-3.57-3.78v56.78c0,13.57-.34,27.16,0,40.72.21,7.57,2.39,14.66,9.92,18.59,2.65,5.21,2,7.34-3.1,9.83L313,471a48.38,48.38,0,0,1-21.81-9.06c-7.46-6.58-10.19-14.9-9.95-24.73.31-12.38,0-24.78,0-37.17q.07-16.41.15-32.81c0-8.63.06-17.26,0-25.89,0-2.44-.83-4.36-3.75-4.3-2.59.05-3.2,1.79-3.19,4q0,29.54.07,59.07c0,12.24-.31,24.48-.06,36.71.2,9.86-2.53,18.35-9.77,25.21A46.92,46.92,0,0,1,243.53,471a10.76,10.76,0,0,0-1.09-.07c-3.15.11-6.43.11-7.4-3.68-.93-3.64.85-6.4,4-8.19,5.38-3.07,7.27-8.14,7.34-13.81.19-14.59,0-29.18,0-43.76V343.66a8.53,8.53,0,0,0-4.11,4.43,28.76,28.76,0,0,0-3.11,10.41c-1.51,14.55-.52,29.15-.63,43.73-.06,6.56,0,13.12-.19,19.68-.19,6.87-2,13.31-7,18.29-10,10.07-22.72,11.85-36.07,10.78-3.85-.31-4.85-4.07-2.33-7.11,1.3-1.57,3.16-2.19,4.93-3,7.85-3.48,13.25-9.06,14.23-17.88A96.86,96.86,0,0,0,212.22,405.9Zm69.08-110.46c1.46,0,2.92,0,4.38,0,20.43-.39,40.91-.36,61-5s36.95-13.86,45.41-34a82.1,82.1,0,0,0,5.44-46.1c-4-23.77-26.82-43.61-50.76-44.72-16.2-.75-32.33.61-48.46,1.73a337.14,337.14,0,0,1-41.22.24c-15.42-.82-30.79-2.17-46.26-2-21.23.16-37.14,9.17-48.4,27.12-8,12.79-9.25,26.54-7.23,41,2.88,20.57,12.74,36.47,31.24,46.56,10.25,5.59,21.29,8.81,32.69,10.93C239.68,295,260.49,295.38,281.31,295.44Zm-127,40.06c-.05-2.55-2.85-5.35-5-5.23a2.32,2.32,0,0,0-2.44,2.91c.44,2.63,2,4.44,4.77,4.75C153.42,338.12,154.13,336.9,154.28,335.5Zm7.25,5.91c-1.8,0-3.46.6-3.17,2.57.41,2.75,2.58,4,5.25,4.16a2.58,2.58,0,0,0,3.05-2.43C166.85,343.76,164,341.46,161.53,341.41Zm15.54,5c-1.71.17-3.7.36-3.64,2.61.07,2.79,2.33,3.42,4.64,3.53,2,.09,4.05-.45,3.9-2.74C181.78,347.2,179.44,346.58,177.07,346.44Zm17.32,6.39c2.11-.19,4.39-.58,4.35-3s-2.33-3.19-4.54-3.1c-2,.09-4.16.66-4.05,3.18S192.5,352.63,194.39,352.83Zm-50.34-29.62c.07-2.39-2.35-5.09-4.39-5.09-1.73,0-2.28,1.1-2.35,2.56-.11,2.34,2.24,5,4.34,4.94C143.35,325.6,143.87,324.5,144.06,323.21ZM134.69,312a4.5,4.5,0,0,0-3.84-3.79,1.85,1.85,0,0,0-2.36,2.06,4.05,4.05,0,0,0,3.78,3.82A2,2,0,0,0,134.69,312Zm76.37,33.24c.18-1.19.52-2.36-1-2.31-2,.06-3.67.79-3.86,3-.17,2,1.36,2.86,3,2.88C212.09,348.85,210,346.05,211.06,345.24ZM123,306.47c1.2-.14,2.34-.55,2.1-1.93-.31-1.78-1.71-2.51-3.44-2.54-1.2,0-2.34.43-2.08,1.81C119.9,305.56,121.37,306.23,123,306.47Z" transform="translate(-5 -41.31)"/><path class="cls-2" d="M212.22,405.9a96.86,96.86,0,0,1-.08,17.1c-1,8.82-6.38,14.4-14.23,17.88-1.77.79-3.64,1.4-4.93,3-2.51,3-1.52,6.81,2.33,7.11,13.35,1.07,26.06-.71,36.07-10.78,4.95-5,6.78-11.42,7-18.29.18-6.56.14-13.12.19-19.68a31.91,31.91,0,0,0,7.85-.71c0,14.59.17,29.18,0,43.76-.07,5.67-2,10.73-7.34,13.81-3.14,1.79-4.92,4.56-4,8.19,1,3.79,4.25,3.8,7.4,3.68a10.76,10.76,0,0,1,1.09.07c3.62,11.62,3,23.6,3,35.52A253.94,253.94,0,0,1,212,502.41c-11.53-2.29-23.06-4.58-34.25-8.22-14.94-4.86-29.58-10.41-41.41-21.33-14.75-13.62-11.78-28.31,2.61-39.83,13.64-10.92,29.84-16.46,46.35-21.2A250.5,250.5,0,0,1,212.22,405.9Z" transform="translate(-5 -41.31)"/><path class="cls-2" d="M362.53,449.45c1.28-3.46.24-6.22-3.32-7.83-11.19-5.06-16-14-15.83-25.91,0-3.51.13-7,.2-10.53,23.06,3.88,45.71,9.12,66.46,20.44,7,3.79,13.44,8.25,18.28,14.76,7.35,9.88,6.72,20.63-1.77,29.78-8,8.6-18,13.93-28.61,18.36-17.08,7.17-35,11.38-53.24,14.43a5.13,5.13,0,0,1-1.09,0c0-9.12-.28-18.25.11-27.36.44-10,5.07-17.75,14.38-22.24,1.08-.52,2.42-.73,2.26-2.39l.9-.44C361.92,450.43,362.42,450.18,362.53,449.45Z" transform="translate(-5 -41.31)"/><path class="cls-3" d="M360.35,450.91c.16,1.66-1.17,1.87-2.26,2.39-9.31,4.49-13.94,12.2-14.38,22.24-.4,9.1-.1,18.24-.11,27.36-8.7,1.42-17.38,3.11-26.25,3.07,0-10.46,0-20.92,0-31.38,0-1.4.46-3-1.07-4,5.08-2.5,5.75-4.62,3.1-9.83,3.15-2.87,5.63-6.4,9.22-8.88,2.09-1.45,5.13-1.54,6.3-4.3C343.13,450.56,351.57,452,360.35,450.91Z" transform="translate(-5 -41.31)"/><path class="cls-2" d="M281.18,400c0,12.39.34,24.79,0,37.17-.24,9.83,2.49,18.15,9.95,24.73a4.51,4.51,0,0,1-1.32,2.53c-2.74,3.34-4.23,7.27-5.49,11.37-3.27,10.59-1.72,21.45-2,32.2l-8.15-.19a93.69,93.69,0,0,1-.61-17c.31-10.66-2.3-20.34-8.9-28.83,7.23-6.86,10-15.35,9.77-25.21-.25-12.23,0-24.47.06-36.71Z" transform="translate(-5 -41.31)"/><path class="cls-3" d="M282.32,508c.32-10.75-1.23-21.61,2-32.2,1.26-4.1,2.75-8,5.49-11.37a4.51,4.51,0,0,0,1.32-2.53A48.38,48.38,0,0,0,313,471c-.74,2.54-1.54,5.07-2.2,7.63-2.37,9.28-1.23,18.74-1.42,28.13A174.65,174.65,0,0,1,282.32,508Z" transform="translate(-5 -41.31)"/><path class="cls-3" d="M264.66,462c6.6,8.49,9.21,18.18,8.9,28.83a93.69,93.69,0,0,0,.61,17,227.21,227.21,0,0,1-27.65-1.28c0-11.92.63-23.9-3-35.52A46.92,46.92,0,0,0,264.66,462Z" transform="translate(-5 -41.31)"/><path class="cls-2" d="M309.35,506.75c.19-9.39-.94-18.86,1.42-28.13.65-2.56,1.46-5.09,2.2-7.63l3.3-.39c1.53,1,1.07,2.6,1.07,4,0,10.46,0,20.92,0,31.38C314.79,507.33,312,506.34,309.35,506.75Z" transform="translate(-5 -41.31)"/><path class="cls-2" d="M105.22,309.28c1.36,4.77,2.63,9.56,4.11,14.3a5.41,5.41,0,0,1-1.72,6.22,4,4,0,0,1-4.8.22,4.77,4.77,0,0,1-2.35-5.64c1.16-5.05,2.65-10,4-15Z" transform="translate(-5 -41.31)"/><path class="cls-4" d="M281.31,295.44c-20.82-.06-41.62-.42-62.18-4.26-11.4-2.13-22.44-5.34-32.69-10.93-18.5-10.1-28.36-26-31.24-46.56-2-14.44-.79-28.2,7.23-41,11.26-18,27.16-27,48.4-27.12,15.47-.12,30.85,1.23,46.26,2a337.14,337.14,0,0,0,41.22-.24c16.13-1.12,32.26-2.48,48.46-1.73,23.94,1.11,46.77,20.95,50.76,44.72a82.1,82.1,0,0,1-5.44,46.1c-8.46,20.09-25.32,29.3-45.41,34s-40.55,4.63-61,5C284.23,295.47,282.77,295.44,281.31,295.44Zm90.83-68.28c0-13.57-2.56-22.67-7.39-29.58-9.63-13.81-24.93-14.22-35.15-.86-6.74,8.81-8.52,19-8,29.82A44,44,0,0,0,329.76,251c8.13,11.31,21.53,12.46,31.36,2.71C369.47,245.43,371.83,235,372.14,227.17Zm-136.52-3.32c0-12.16-2.28-20.14-9-28.5-5.09-6.3-11.68-9.67-20.16-7.91-6.3,1.31-10.55,5.46-14,10.38-10.71,15.3-9.83,38.92,1.76,54,8.06,10.46,21.48,11.47,30.69,2.07C233,245.56,235.7,235.16,235.62,223.85Zm40.78,59c5.82.34,12.57-4.06,14.77-9.49.58-1.42.76-2.66-.73-3.46-1.69-.92-2.51.37-3,1.63a11.51,11.51,0,0,1-21.24.06c-.57-1.23-1.29-2.59-3-1.7s-1.38,2.32-.65,3.75C265.41,279.27,270,282.41,276.4,282.82Zm6.67-26.65a6.26,6.26,0,1,0-12.52.07,6.26,6.26,0,1,0,12.52-.07Z" transform="translate(-5 -41.31)"/><path class="cls-2" d="M334.89,447.58c-1.17,2.76-4.21,2.85-6.3,4.3-3.58,2.49-6.07,6-9.22,8.88-7.53-3.94-9.71-11-9.92-18.59-.38-13.56-.06-27.14,0-40.72,2.62.08,5.25-.06,7.81.68.06,6.42.06,12.85.19,19.27C317.67,433.82,323.66,442.46,334.89,447.58Z" transform="translate(-5 -41.31)"/><path class="cls-5" d="M281.18,400l-6.69,0q0-29.53-.07-59.07c0-2.17.6-3.91,3.19-4,2.93-.06,3.74,1.86,3.75,4.3,0,8.63,0,17.26,0,25.89Q281.27,383.62,281.18,400Z" transform="translate(-5 -41.31)"/><path class="cls-5" d="M246.4,401.51a31.91,31.91,0,0,1-7.85.71c.11-14.58-.88-29.17.63-43.73a28.76,28.76,0,0,1,3.11-10.41,8.53,8.53,0,0,1,4.11-4.43Z" transform="translate(-5 -41.31)"/><path class="cls-5" d="M317.23,402.13c-2.56-.74-5.19-.6-7.81-.68V344.66c2.09.54,2.74,2.3,3.57,3.78a35.84,35.84,0,0,1,4.2,16.83C317.45,377.55,317.24,389.84,317.23,402.13Z" transform="translate(-5 -41.31)"/><path class="cls-2" d="M154.28,335.5c-.16,1.4-.86,2.62-2.71,2.42-2.79-.3-4.33-2.12-4.77-4.75a2.32,2.32,0,0,1,2.44-2.91C151.43,330.15,154.23,332.95,154.28,335.5Z" transform="translate(-5 -41.31)"/><path class="cls-2" d="M161.53,341.41c2.49.05,5.32,2.35,5.13,4.3a2.58,2.58,0,0,1-3.05,2.43c-2.67-.18-4.84-1.41-5.25-4.16C158.06,342,159.73,341.36,161.53,341.41Z" transform="translate(-5 -41.31)"/><path class="cls-2" d="M177.07,346.44c2.37.14,4.71.76,4.89,3.4.16,2.3-1.94,2.84-3.9,2.74-2.31-.11-4.57-.74-4.64-3.53C173.37,346.8,175.37,346.61,177.07,346.44Z" transform="translate(-5 -41.31)"/><path class="cls-2" d="M194.39,352.83c-1.9-.2-4.13-.38-4.24-2.91s2-3.1,4.05-3.18c2.2-.1,4.5.55,4.54,3.1S196.5,352.65,194.39,352.83Z" transform="translate(-5 -41.31)"/><path class="cls-2" d="M144.06,323.21c-.19,1.29-.71,2.39-2.41,2.41-2.09,0-4.45-2.6-4.34-4.94.07-1.46.63-2.55,2.35-2.56C141.7,318.12,144.12,320.82,144.06,323.21Z" transform="translate(-5 -41.31)"/><path class="cls-2" d="M134.69,312a2,2,0,0,1-2.43,2.09,4.05,4.05,0,0,1-3.78-3.82,1.85,1.85,0,0,1,2.36-2.06A4.5,4.5,0,0,1,134.69,312Z" transform="translate(-5 -41.31)"/><path class="cls-2" d="M211.06,345.24c-1.09.81,1,3.6-1.88,3.58-1.65,0-3.18-.9-3-2.88.19-2.21,1.91-2.94,3.86-3C211.58,342.89,211.23,344,211.06,345.24Z" transform="translate(-5 -41.31)"/><path class="cls-2" d="M123,306.47c-1.63-.24-3.1-.91-3.43-2.65-.26-1.38.88-1.83,2.08-1.81,1.73,0,3.13.75,3.44,2.54C125.33,305.92,124.2,306.32,123,306.47Z" transform="translate(-5 -41.31)"/><path class="cls-3" d="M362.53,449.45c-.11.73-.61,1-1.27,1Z" transform="translate(-5 -41.31)"/><path class="cls-5" d="M372.14,227.17c-.3,7.84-2.67,18.27-11,26.54-9.83,9.75-23.23,8.59-31.36-2.71a44,44,0,0,1-8.21-24.46c-.48-10.86,1.31-21,8-29.82,10.22-13.36,25.52-12.95,35.15.86C369.57,204.5,372.14,213.59,372.14,227.17Zm-44.9-2.91c0,6.11,1.39,12.56,5.67,18.1,6.27,8.12,15.8,8.25,22.29.33,8.1-9.88,7.89-28-.42-37.68-6-7-14.7-7.12-20.88-.28C329.08,210,327.45,216.56,327.23,224.26Z" transform="translate(-5 -41.31)"/><path class="cls-5" d="M235.62,223.85c.08,11.31-2.61,21.71-10.74,30-9.21,9.4-22.63,8.39-30.69-2.07-11.59-15.06-12.47-38.68-1.76-54,3.44-4.92,7.7-9.07,14-10.38,8.48-1.76,15.07,1.61,20.16,7.91C233.34,203.71,235.6,211.69,235.62,223.85Zm-39.75,3.46c0,3.61,1.6,10.09,6.11,15.62,5.94,7.28,14.75,7.48,21.1.56,8.93-9.72,8.83-29.42-.2-39-6-6.36-14.16-6.43-20.14,0C197.67,209.92,195.93,216.64,195.87,227.31Z" transform="translate(-5 -41.31)"/><path class="cls-6" d="M276.4,282.82c-6.41-.4-11-3.55-13.88-9.23-.73-1.44-1.09-2.85.65-3.75s2.44.48,3,1.7a11.51,11.51,0,0,0,21.24-.06c.52-1.26,1.34-2.54,3-1.63,1.48.8,1.3,2,.73,3.46C289,278.76,282.22,283.16,276.4,282.82Z" transform="translate(-5 -41.31)"/><path class="cls-6" d="M283.07,256.17a6.26,6.26,0,1,1-12.52.07,6.26,6.26,0,1,1,12.52-.07Z" transform="translate(-5 -41.31)"/><path class="cls-6" d="M327.23,224.26c.22-7.69,1.84-14.21,6.66-19.53,6.19-6.84,14.9-6.68,20.88.28,8.32,9.67,8.52,27.8.42,37.68-6.48,7.92-16,7.78-22.29-.33C328.63,236.81,327.26,230.37,327.23,224.26Zm15.92-10.95c-.09-2.76-1.54-4.49-4.23-4.49a3.89,3.89,0,0,0-4.19,4.11c-.06,2.76,1.41,4.4,4.18,4.44C341.51,217.41,342.87,215.83,343.16,213.31Z" transform="translate(-5 -41.31)"/><path class="cls-6" d="M195.87,227.31c.06-10.68,1.81-17.39,6.87-22.85,6-6.43,14.15-6.37,20.14,0,9,9.61,9.14,29.31.2,39-6.35,6.92-15.16,6.71-21.1-.56C197.46,237.41,195.83,230.92,195.87,227.31Zm14.61-14.1a4.88,4.88,0,0,0-9.77-.18,4.88,4.88,0,1,0,9.77.18Z" transform="translate(-5 -41.31)"/><path class="cls-5" d="M343.16,213.31c-.29,2.53-1.64,4.1-4.24,4.06-2.77,0-4.24-1.68-4.18-4.44a3.89,3.89,0,0,1,4.19-4.11C341.62,208.82,343.07,210.54,343.16,213.31Z" transform="translate(-5 -41.31)"/><path class="cls-5" d="M210.47,213.21a4.88,4.88,0,1,1-9.77-.18,4.88,4.88,0,0,1,9.77.18Z" transform="translate(-5 -41.31)"/></svg>